<svg xmlns="http://www.w3.org/2000/svg" viewBox="0 0 600 600"><path d="M386.5,202.1L462.5,70.5L417.5,44.5L341.5,176.1Z"/><path d="M324.2,172.0L324.2,20.0L275.8,20.0L275.8,172.0Z"/><path d="M255.4,177.9L179.4,46.3L140.6,68.7L216.6,200.4Z"/><path d="M199.5,218.1L67.9,142.1L47.2,177.9L178.8,253.9Z"/><path d="M172.0,281.1L20.0,281.1L20.0,318.9L172.0,318.9Z"/><path d="M180.6,349.2L48.9,425.2L66.1,454.8L197.7,378.8Z"/><path d="M222.7,403.2L146.7,534.8L173.3,550.2L249.3,418.5Z"/><path d="M286.4,428.0L286.4,580.0L313.6,580.0L313.6,428.0Z"/><path d="M353.8,416.8L429.8,548.4L450.2,536.6L374.2,404.9Z"/><path d="M405.8,372.7L537.5,448.7L547.5,431.3L415.9,355.3Z"/><path d="M428.0,308.3L580.0,308.3L580.0,291.7L428.0,291.7Z"/><path d="M414.1,241.6L545.7,165.6L539.2,154.4L407.6,230.4Z"/></svg>
